<?xml version="1.0" encoding="UTF-8" standalone="no"?>
<svg
   width="20"
   height="20"
   viewBox="0 0 20 20"
   fill="none"
   version="1.1"
   id="svg2"
   sodipodi:docname="Icon=close.svg"
   inkscape:version="1.3.2 (091e20e, 2023-11-25)"
   xmlns:inkscape="http://www.inkscape.org/namespaces/inkscape"
   xmlns:sodipodi="http://sodipodi.sourceforge.net/DTD/sodipodi-0.dtd"
   xmlns="http://www.w3.org/2000/svg"
   xmlns:svg="http://www.w3.org/2000/svg">
  <path
     id="path1"
     style="color:#000000;fill:#b8c1cc;stroke-linecap:round;stroke-linejoin:round;-inkscape-stroke:none"
     d="m 5,4 a 1,1 0 0 0 -0.7070312,0.2929688 1,1 0 0 0 0,1.4140624 L 8.5859375,10 4.2929688,14.292969 a 1,1 0 0 0 0,1.414062 1,1 0 0 0 1.4140624,0 L 10,11.414062 l 4.292969,4.292969 a 1,1 0 0 0 1.414062,0 1,1 0 0 0 0,-1.414062 L 11.414062,10 15.707031,5.7070312 a 1,1 0 0 0 0,-1.4140624 A 1,1 0 0 0 15,4 1,1 0 0 0 14.292969,4.2929688 L 10,8.5859375 5.7070312,4.2929688 A 1,1 0 0 0 5,4 Z" />
</svg>
