<?xml version="1.0" encoding="UTF-8" standalone="no"?>
<svg
   width="20"
   height="20"
   viewBox="0 0 20 20"
   fill="none"
   version="1.1"
   id="svg4"
   sodipodi:docname="Icon=delete.svg"
   inkscape:version="1.3.2 (091e20e, 2023-11-25)"
   xmlns:inkscape="http://www.inkscape.org/namespaces/inkscape"
   xmlns:sodipodi="http://sodipodi.sourceforge.net/DTD/sodipodi-0.dtd"
   xmlns="http://www.w3.org/2000/svg"
   xmlns:svg="http://www.w3.org/2000/svg">
  <path
     id="path1"
     style="color:#000000;fill:#b8c1cc;stroke-linecap:round;stroke-linejoin:round;-inkscape-stroke:none"
     d="m 8.3339844,0.66601562 c -0.7068523,10e-9 -1.386886,0.28141722 -1.8867188,0.78124998 -0.4998328,0.4998328 -0.78125,1.1798705 -0.78125,1.8867188 V 4 h -1.5 H 2.5 a 1,1 0 0 0 -1,1 1,1 0 0 0 1,1 h 0.6660156 v 10.666016 c 0,0.70684 0.2814927,1.386898 0.78125,1.886718 0.4998178,0.499723 1.1798555,0.78125 1.8867188,0.78125 h 8.3320316 c 0.706895,0 1.386913,-0.281603 1.886718,-0.78125 0.499647,-0.499805 0.78125,-1.179863 0.78125,-1.886718 V 6 H 17.5 a 1,1 0 0 0 1,-1 1,1 0 0 0 -1,-1 h -1.666016 -1.5 V 3.3339844 c 0,-0.7068633 -0.281527,-1.386901 -0.78125,-1.8867188 -0.49982,-0.49975725 -1.179838,-0.78124997 -1.886718,-0.78124998 z m 0,1.99999998 h 3.3320316 c 0.177317,0 0.347278,0.069951 0.472656,0.1953125 0.125277,0.125301 0.195312,0.2954814 0.195312,0.4726563 V 4 H 7.6660156 V 3.3339844 c 0,-0.17719 0.070026,-0.3473703 0.1953125,-0.4726563 C 7.9866141,2.7360423 8.1567784,2.6660156 8.3339844,2.6660156 Z M 5.1660156,6 h 9.6679684 v 10.666016 c 0,0.177142 -0.06996,0.347263 -0.195312,0.472656 -0.125393,0.125352 -0.295354,0.195312 -0.472656,0.195312 H 5.8339844 c -0.1771749,0 -0.3473553,-0.07004 -0.4726563,-0.195312 C 5.2359667,17.013294 5.1660156,16.843173 5.1660156,16.666016 Z m 3.1679688,2.1660156 a 1,1 0 0 0 -1,1 v 5.0000004 a 1,1 0 0 0 1,1 1,1 0 0 0 1,-1 V 9.1660156 a 1,1 0 0 0 -1,-1 z m 3.3320316,0 a 1,1 0 0 0 -1,1 v 5.0000004 a 1,1 0 0 0 1,1 1,1 0 0 0 1,-1 V 9.1660156 a 1,1 0 0 0 -1,-1 z" />
</svg>
