<svg width="42" height="42" viewBox="0 0 42 42" fill="none" xmlns="http://www.w3.org/2000/svg">
<mask id="mask0_924_990" style="mask-type:alpha" maskUnits="userSpaceOnUse" x="0" y="0" width="42" height="42">
<rect width="42" height="42" fill="#D9D9D9"/>
</mask>
<g mask="url(#mask0_924_990)">
<path d="M12.0667 28.442C11.1111 27.3875 10.3611 26.1792 9.81667 24.817C9.27222 23.4549 9 22.0159 9 20.5C9 17.2045 10.1667 14.4034 12.5 12.0966C14.8333 9.78977 17.6667 8.63636 21 8.63636V6L27.6667 10.9432L21 15.8864V13.25C18.9778 13.25 17.25 13.9585 15.8167 15.3756C14.3833 16.7926 13.6667 18.5008 13.6667 20.5C13.6667 21.5106 13.8611 22.4553 14.25 23.3341C14.6389 24.2129 15.1667 24.9818 15.8333 25.6409L12.0667 28.442ZM21 35L14.3333 30.0568L21 25.1136V27.75C23.0222 27.75 24.75 27.0415 26.1833 25.6244C27.6167 24.2074 28.3333 22.4992 28.3333 20.5C28.3333 19.4894 28.1389 18.5447 27.75 17.6659C27.3611 16.7871 26.8333 16.0182 26.1667 15.3591L29.9333 12.558C30.8889 13.6125 31.6389 14.8208 32.1833 16.183C32.7278 17.5451 33 18.9841 33 20.5C33 23.7955 31.8333 26.5966 29.5 28.9034C27.1667 31.2102 24.3333 32.3636 21 32.3636V35Z" fill="white"/>
</g>
</svg>
