<svg width="25" height="25" viewBox="0 0 25 25" fill="none" xmlns="http://www.w3.org/2000/svg">
<mask id="mask0_894_312" style="mask-type:alpha" maskUnits="userSpaceOnUse" x="0" y="0" width="25" height="25">
<rect x="0.600098" y="0.5" width="24" height="24" fill="#D9D9D9"/>
</mask>
<g mask="url(#mask0_894_312)">
<path d="M8.6001 13.5H16.6001V11.5H8.6001V13.5ZM8.6001 16.5H16.6001V14.5H8.6001V16.5ZM8.6001 19.5H13.6001V17.5H8.6001V19.5ZM6.6001 22.5C6.0501 22.5 5.57926 22.3042 5.1876 21.9125C4.79593 21.5208 4.6001 21.05 4.6001 20.5V4.5C4.6001 3.95 4.79593 3.47917 5.1876 3.0875C5.57926 2.69583 6.0501 2.5 6.6001 2.5H14.6001L20.6001 8.5V20.5C20.6001 21.05 20.4043 21.5208 20.0126 21.9125C19.6209 22.3042 19.1501 22.5 18.6001 22.5H6.6001ZM13.6001 9.5H18.6001L13.6001 4.5V9.5Z" fill="white"/>
</g>
</svg>
