<?xml version="1.0" encoding="UTF-8" standalone="no"?>
<svg
   width="20"
   height="20"
   viewBox="0 0 20 20"
   fill="none"
   version="1.1"
   id="svg3"
   sodipodi:docname="Icon=download.svg"
   inkscape:version="1.3.2 (091e20e, 2023-11-25)"
   xmlns:inkscape="http://www.inkscape.org/namespaces/inkscape"
   xmlns:sodipodi="http://sodipodi.sourceforge.net/DTD/sodipodi-0.dtd"
   xmlns="http://www.w3.org/2000/svg"
   xmlns:svg="http://www.w3.org/2000/svg">
  <path
     id="path1"
     style="color:#000000;fill:#b8c1cc;stroke-linecap:round;stroke-linejoin:round;-inkscape-stroke:none"
     d="m 10,1.5 a 1,1 0 0 0 -1,1 v 7.585938 L 6.5410156,7.6269531 A 1,1 0 0 0 5.8339844,7.3339844 1,1 0 0 0 5.1269531,7.6269531 a 1,1 0 0 0 0,1.4140625 L 9.2929688,13.207031 A 1,1 0 0 0 10,13.5 1,1 0 0 0 10.707031,13.207031 l 4.166016,-4.1660154 a 1,1 0 0 0 0,-1.4140625 1,1 0 0 0 -1.414063,0 L 11,10.085938 V 2.5 a 1,1 0 0 0 -1,-1 z m -7.5,10 a 1,1 0 0 0 -1,1 v 3.333984 c 0,0.706881 0.2813432,1.384971 0.78125,1.884766 C 2.7810727,18.218637 3.4591483,18.5 4.1660156,18.5 H 15.833984 c 0.706896,0 1.384975,-0.281299 1.884766,-0.78125 C 18.218701,17.218959 18.5,16.54088 18.5,15.833984 V 12.5 a 1,1 0 0 0 -1,-1 1,1 0 0 0 -1,1 v 3.333984 c 0,0.177303 -0.07006,0.345497 -0.195312,0.470704 C 16.179481,16.429935 16.011287,16.5 15.833984,16.5 H 4.1660156 C 3.9888247,16.5 3.8206086,16.43 3.6953125,16.304688 3.5700805,16.179484 3.5,16.011302 3.5,15.833984 V 12.5 a 1,1 0 0 0 -1,-1 z" />
</svg>
