<?xml version="1.0" encoding="UTF-8" standalone="no"?>
<svg
   width="20"
   height="20"
   viewBox="0 0 20 20"
   fill="none"
   version="1.1"
   id="svg5"
   sodipodi:docname="Icon=file-text.svg"
   inkscape:version="1.3.2 (091e20e, 2023-11-25)"
   xmlns:inkscape="http://www.inkscape.org/namespaces/inkscape"
   xmlns:sodipodi="http://sodipodi.sourceforge.net/DTD/sodipodi-0.dtd"
   xmlns="http://www.w3.org/2000/svg"
   xmlns:svg="http://www.w3.org/2000/svg">
  <path
     id="path1"
     style="color:#000000;fill:#b8c1cc;stroke-linecap:round;stroke-linejoin:round;-inkscape-stroke:none"
     d="M 5,0.91601562 C 4.3593535,0.91601562 3.7440245,1.1719913 3.2910156,1.625 2.8380069,2.0780087 2.5839844,2.6933321 2.5839844,3.3339844 V 16.666016 c 0,0.640641 0.2540791,1.255973 0.7070312,1.708984 C 3.7440132,18.827911 4.3593422,19.083984 5,19.083984 h 10 c 0.640641,0 1.25597,-0.255968 1.708984,-0.708984 0.453015,-0.453014 0.707032,-1.068343 0.707032,-1.708984 V 6.6660156 A 0.75,0.75 0 0 0 17.359375,6.3789062 0.75,0.75 0 0 0 17.197266,6.1367188 v -0.00195 a 0.75,0.75 0 0 0 -0.01758,-0.015625 l -4.976563,-4.9765625 -0.0059,-0.00586 A 0.75,0.75 0 0 0 11.980469,0.99023438 0.750075,0.750075 0 0 0 11.919922,0.96679688 0.75,0.75 0 0 0 11.666016,0.91601562 Z M 5,2.4160156 h 5.916016 v 4.25 a 0.750075,0.750075 0 0 0 0.75,0.75 h 4.25 v 9.2500004 c 0,0.243356 -0.09539,0.476252 -0.267578,0.648437 C 15.476454,17.486437 15.243357,17.583984 15,17.583984 H 5 c -0.2434005,0 -0.4763163,-0.09744 -0.6484375,-0.269531 C 4.1793959,17.142264 4.0839844,16.909372 4.0839844,16.666016 V 3.3339844 c 0,-0.243386 0.095468,-0.4763276 0.2675781,-0.6484375 C 4.5236724,2.5134368 4.7565882,2.4160156 5,2.4160156 Z m 7.416016,1.0605469 2.439453,2.4394531 H 12.416016 Z M 6.6660156,6.75 a 0.75,0.75 0 0 0 -0.75,0.75 0.75,0.75 0 0 0 0.75,0.75 H 7.5 8.3339844 a 0.75,0.75 0 0 0 0.75,-0.75 0.75,0.75 0 0 0 -0.75,-0.75 H 7.5 Z m 0,3.333984 a 0.75,0.75 0 0 0 -0.75,0.75 0.75,0.75 0 0 0 0.75,0.75 h 6.6679684 a 0.75,0.75 0 0 0 0.75,-0.75 0.75,0.75 0 0 0 -0.75,-0.75 z m 0,3.332032 a 0.75,0.75 0 0 0 -0.75,0.75 0.75,0.75 0 0 0 0.75,0.75 h 6.6679684 a 0.75,0.75 0 0 0 0.75,-0.75 0.75,0.75 0 0 0 -0.75,-0.75 z" />
</svg>
