<?xml version="1.0" encoding="UTF-8" standalone="no"?>
<svg
   width="20"
   height="20"
   viewBox="0 0 20 20"
   fill="none"
   version="1.1"
   id="svg1"
   sodipodi:docname="Icon=filter.svg"
   inkscape:version="1.3.2 (091e20e, 2023-11-25)"
   xmlns:inkscape="http://www.inkscape.org/namespaces/inkscape"
   xmlns:sodipodi="http://sodipodi.sourceforge.net/DTD/sodipodi-0.dtd"
   xmlns="http://www.w3.org/2000/svg"
   xmlns:svg="http://www.w3.org/2000/svg">
  <path
     id="path1"
     style="color:#000000;fill:#b8c1cc;stroke-linecap:round;stroke-linejoin:round;-inkscape-stroke:none"
     d="M 1.6660156,1.5 A 1.0001,1.0001 0 0 0 0.90234375,3.1464844 L 7.3339844,10.75 v 5.083984 a 1.0001,1.0001 0 0 0 0.5527344,0.894532 L 11.21875,18.394531 A 1.0001,1.0001 0 0 0 12.666016,17.5 v -6.75 l 6.43164,-7.6035156 A 1.0001,1.0001 0 0 0 18.333984,1.5 Z m 2.15625,2 H 16.177734 l -5.27539,6.2382812 a 1.0001,1.0001 0 0 0 -0.236328,0.6445308 v 5.498047 L 9.3339844,15.214844 V 10.382812 A 1.0001,1.0001 0 0 0 9.0976562,9.7382812 Z" />
</svg>
