<svg width="30" height="30" viewBox="0 0 30 30" fill="none" xmlns="http://www.w3.org/2000/svg">
<mask id="mask0_894_75" style="mask-type:alpha" maskUnits="userSpaceOnUse" x="0" y="0" width="30" height="30">
<rect width="30" height="30" fill="#D9D9D9"/>
</mask>
<g mask="url(#mask0_894_75)">
<path d="M15.0001 8.75C14.3126 8.75 13.7241 8.50521 13.2345 8.01562C12.7449 7.52604 12.5001 6.9375 12.5001 6.25C12.5001 5.5625 12.7449 4.97396 13.2345 4.48438C13.7241 3.99479 14.3126 3.75 15.0001 3.75C15.6876 3.75 16.2762 3.99479 16.7657 4.48438C17.2553 4.97396 17.5001 5.5625 17.5001 6.25C17.5001 6.9375 17.2553 7.52604 16.7657 8.01562C16.2762 8.50521 15.6876 8.75 15.0001 8.75ZM13.1251 26.25V11.25H16.8751V26.25H13.1251Z" fill="white"/>
</g>
</svg>
