<svg width="25" height="25" viewBox="0 0 25 25" fill="none" xmlns="http://www.w3.org/2000/svg">
<mask id="mask0_894_248" style="mask-type:alpha" maskUnits="userSpaceOnUse" x="0" y="0" width="25" height="25">
<rect x="0.399963" y="0.5" width="24" height="24" fill="#D9D9D9"/>
</mask>
<g mask="url(#mask0_894_248)">
<path d="M10.9 7.5C10.9 6.95 11.0958 6.47917 11.4875 6.0875C11.8791 5.69583 12.35 5.5 12.9 5.5C13.45 5.5 13.9208 5.69583 14.3125 6.0875C14.7041 6.47917 14.9 6.95 14.9 7.5C14.9 8.05 14.7041 8.52083 14.3125 8.9125C13.9208 9.30417 13.45 9.5 12.9 9.5C12.35 9.5 11.8791 9.30417 11.4875 8.9125C11.0958 8.52083 10.9 8.05 10.9 7.5ZM12.9 24.5L8.39996 20L9.89996 18L8.39996 16L9.89996 13.875V12.7C8.99996 12.1667 8.27496 11.4458 7.72496 10.5375C7.17496 9.62917 6.89996 8.61667 6.89996 7.5C6.89996 5.83333 7.4833 4.41667 8.64996 3.25C9.81663 2.08333 11.2333 1.5 12.9 1.5C14.5666 1.5 15.9833 2.08333 17.15 3.25C18.3166 4.41667 18.9 5.83333 18.9 7.5C18.9 8.61667 18.625 9.62917 18.075 10.5375C17.525 11.4458 16.8 12.1667 15.9 12.7V21.5L12.9 24.5ZM8.89996 7.5C8.89996 8.43333 9.1833 9.25417 9.74996 9.9625C10.3166 10.6708 11.0333 11.1417 11.9 11.375V14.5L10.875 15.95L12.4 18L11.025 19.775L12.9 21.65L13.9 20.65V11.375C14.7666 11.1417 15.4833 10.6708 16.05 9.9625C16.6166 9.25417 16.9 8.43333 16.9 7.5C16.9 6.4 16.5083 5.45833 15.725 4.675C14.9416 3.89167 14 3.5 12.9 3.5C11.8 3.5 10.8583 3.89167 10.075 4.675C9.29163 5.45833 8.89996 6.4 8.89996 7.5Z" fill="white"/>
</g>
</svg>
