<svg width="22" height="22" viewBox="0 0 22 22" fill="none" xmlns="http://www.w3.org/2000/svg">
<path d="M19.7439 14.7206L19.1043 14.3289V14.3289L19.7439 14.7206ZM18.7894 16.2794L19.429 16.6711V16.6711L18.7894 16.2794ZM2.25609 7.27942L1.61648 6.88775H1.61648L2.25609 7.27942ZM3.21064 5.72057L3.85025 6.11223L3.21064 5.72057ZM5.81852 5.06172L6.1771 4.403L6.1771 4.403L5.81852 5.06172ZM2.95487 9.73826L2.59629 10.397H2.59629L2.95487 9.73826ZM16.1815 16.9383L15.8229 17.597L15.8229 17.597L16.1815 16.9383ZM19.0451 12.2617L18.6866 12.9204V12.9205L19.0451 12.2617ZM3.21064 16.2794L2.57103 16.6711L2.57103 16.6711L3.21064 16.2794ZM2.25609 14.7206L2.8957 14.3289L2.8957 14.3289L2.25609 14.7206ZM18.7894 5.72058L19.429 5.32892L18.7894 5.72058ZM19.7439 7.27943L19.1043 7.67109V7.67109L19.7439 7.27943ZM19.0451 9.73828L19.4037 10.397L19.0451 9.73828ZM16.1815 5.06174L16.5401 5.72046V5.72046L16.1815 5.06174ZM2.95487 12.2617L3.31345 12.9205H3.31345L2.95487 12.2617ZM5.81851 16.9383L5.45994 16.2795L5.45993 16.2795L5.81851 16.9383ZM16.08 5.11698L15.7214 4.45825L16.08 5.11698ZM5.92 5.11697L5.56142 5.77569L5.56142 5.77569L5.92 5.11697ZM16.08 16.883L16.4386 16.2243L16.4386 16.2243L16.08 16.883ZM5.92 16.883L6.27858 17.5418L6.27858 17.5418L5.92 16.883ZM10.0455 2.75H11.9545V1.25H10.0455V2.75ZM11.9545 19.25H10.0455V20.75H11.9545V19.25ZM10.0455 19.25C9.36311 19.25 8.88635 18.7389 8.88635 18.2H7.38635C7.38635 19.6493 8.61906 20.75 10.0455 20.75V19.25ZM13.1136 18.2C13.1136 18.7389 12.6369 19.25 11.9545 19.25V20.75C13.3809 20.75 14.6136 19.6493 14.6136 18.2H13.1136ZM11.9545 2.75C12.6369 2.75 13.1136 3.26107 13.1136 3.8H14.6136C14.6136 2.35071 13.3809 1.25 11.9545 1.25V2.75ZM10.0455 1.25C8.61906 1.25 7.38635 2.35071 7.38635 3.8H8.88635C8.88635 3.26107 9.36311 2.75 10.0455 2.75V1.25ZM19.1043 14.3289L18.1498 15.8878L19.429 16.6711L20.3835 15.1122L19.1043 14.3289ZM2.8957 7.67108L3.85025 6.11223L2.57103 5.32891L1.61648 6.88775L2.8957 7.67108ZM3.85025 6.11223C4.15889 5.6082 4.88055 5.40506 5.45993 5.72045L6.1771 4.403C4.93027 3.72428 3.31676 4.11109 2.57103 5.32891L3.85025 6.11223ZM3.31345 9.07954C2.75746 8.77688 2.6043 8.14696 2.8957 7.67108L1.61648 6.88775C0.853518 8.13373 1.32606 9.70553 2.59629 10.397L3.31345 9.07954ZM18.1498 15.8878C17.8411 16.3918 17.1195 16.5949 16.5401 16.2795L15.8229 17.597C17.0697 18.2757 18.6832 17.8889 19.429 16.6711L18.1498 15.8878ZM20.3835 15.1122C21.1465 13.8663 20.6739 12.2945 19.4037 11.603L18.6866 12.9205C19.2425 13.2231 19.3957 13.853 19.1043 14.3289L20.3835 15.1122ZM3.85025 15.8878L2.8957 14.3289L1.61648 15.1122L2.57103 16.6711L3.85025 15.8878ZM18.1498 6.11225C18.4133 6.54271 18.652 6.93242 18.8247 7.21451C18.9111 7.35556 18.981 7.46971 19.0293 7.54859C19.0534 7.58803 19.0722 7.61865 19.0849 7.63942C19.0913 7.6498 19.0961 7.65772 19.0994 7.66304C19.101 7.6657 19.1022 7.66771 19.1031 7.66906C19.1035 7.66973 19.1038 7.67024 19.104 7.67058C19.1041 7.67075 19.1042 7.67088 19.1042 7.67096C19.1042 7.671 19.1043 7.67104 19.1043 7.67106C19.1043 7.67107 19.1043 7.67108 19.1043 7.67108C19.1043 7.67109 19.1043 7.67109 19.7439 7.27943C20.3835 6.88777 20.3835 6.88777 20.3835 6.88776C20.3835 6.88776 20.3835 6.88775 20.3835 6.88774C20.3835 6.88772 20.3835 6.88768 20.3834 6.88764C20.3834 6.88756 20.3833 6.88743 20.3832 6.88726C20.383 6.88692 20.3827 6.88641 20.3823 6.88574C20.3815 6.88439 20.3802 6.88238 20.3786 6.87972C20.3753 6.8744 20.3705 6.86648 20.3641 6.8561C20.3514 6.83533 20.3327 6.80471 20.3085 6.76527C20.2602 6.68639 20.1903 6.57224 20.1039 6.43119C19.9312 6.1491 19.6926 5.75939 19.429 5.32892L18.1498 6.11225ZM19.1043 7.67109C19.3957 8.14697 19.2425 8.77689 18.6866 9.07955L19.4037 10.397C20.6739 9.70554 21.1465 8.13374 20.3835 6.88777L19.1043 7.67109ZM16.5401 5.72046C17.1195 5.40507 17.8411 5.60822 18.1498 6.11225L19.429 5.32892C18.6832 4.1111 17.0697 3.72429 15.8229 4.40301L16.5401 5.72046ZM2.8957 14.3289C2.6043 13.853 2.75746 13.2231 3.31345 12.9205L2.59629 11.603C1.32606 12.2945 0.853517 13.8663 1.61648 15.1122L2.8957 14.3289ZM2.57103 16.6711C3.31675 17.8889 4.93027 18.2757 6.1771 17.597L5.45993 16.2795C4.88055 16.5949 4.15889 16.3918 3.85025 15.8878L2.57103 16.6711ZM16.4386 5.7757L16.5401 5.72046L15.8229 4.40301L15.7214 4.45825L16.4386 5.7757ZM5.45993 5.72045L5.56142 5.77569L6.27858 4.45824L6.1771 4.403L5.45993 5.72045ZM16.5401 16.2795L16.4386 16.2243L15.7214 17.5417L15.8229 17.597L16.5401 16.2795ZM5.56142 16.2243L5.45994 16.2795L6.17709 17.597L6.27858 17.5418L5.56142 16.2243ZM2.59629 10.397C3.07404 10.6571 3.07404 11.3429 2.59629 11.603L3.31345 12.9205C4.83498 12.0922 4.83498 9.90779 3.31345 9.07954L2.59629 10.397ZM6.27858 17.5418C6.77798 17.2699 7.38635 17.6314 7.38635 18.2H8.88635C8.88635 16.4934 7.06035 15.4084 5.56142 16.2243L6.27858 17.5418ZM14.6136 18.2C14.6136 17.6314 15.222 17.2699 15.7214 17.5417L16.4386 16.2243C14.9397 15.4083 13.1136 16.4934 13.1136 18.2H14.6136ZM19.4037 11.603C18.926 11.3429 18.926 10.6571 19.4037 10.397L18.6866 9.07955C17.165 9.9078 17.165 12.0922 18.6866 12.9204L19.4037 11.603ZM5.56142 5.77569C7.06035 6.59165 8.88635 5.50663 8.88635 3.8H7.38635C7.38635 4.3686 6.77798 4.7301 6.27858 4.45824L5.56142 5.77569ZM15.7214 4.45825C15.222 4.73011 14.6136 4.36861 14.6136 3.8H13.1136C13.1136 5.50663 14.9397 6.59166 16.4386 5.7757L15.7214 4.45825ZM13.25 11C13.25 12.2426 12.2426 13.25 11 13.25V14.75C13.0711 14.75 14.75 13.0711 14.75 11H13.25ZM11 13.25C9.75737 13.25 8.75001 12.2426 8.75001 11H7.25001C7.25001 13.0711 8.92894 14.75 11 14.75V13.25ZM8.75001 11C8.75001 9.75736 9.75737 8.75 11 8.75V7.25C8.92894 7.25 7.25001 8.92893 7.25001 11H8.75001ZM11 8.75C12.2426 8.75 13.25 9.75736 13.25 11H14.75C14.75 8.92893 13.0711 7.25 11 7.25V8.75Z" fill="white"/>
</svg>
