<svg width="22" height="22" viewBox="0 0 22 22" fill="none" xmlns="http://www.w3.org/2000/svg">
<mask id="mask0_657_2172" style="mask-type:alpha" maskUnits="userSpaceOnUse" x="0" y="0" width="22" height="22">
<rect width="22" height="22" fill="#D9D9D9"/>
</mask>
<g mask="url(#mask0_657_2172)">
<path d="M7.33333 11.9167H14.6667V10.0833H7.33333V11.9167ZM7.33333 14.6667H14.6667V12.8333H7.33333V14.6667ZM7.33333 17.4167H11.9167V15.5833H7.33333V17.4167ZM5.5 20.1667C4.99583 20.1667 4.56424 19.9872 4.20521 19.6281C3.84618 19.2691 3.66667 18.8375 3.66667 18.3333V3.66668C3.66667 3.16251 3.84618 2.73091 4.20521 2.37189C4.56424 2.01286 4.99583 1.83334 5.5 1.83334H12.8333L18.3333 7.33334V18.3333C18.3333 18.8375 18.1538 19.2691 17.7948 19.6281C17.4358 19.9872 17.0042 20.1667 16.5 20.1667H5.5ZM11.9167 8.25001V3.66668H5.5V18.3333H16.5V8.25001H11.9167Z" fill="white"/>
</g>
</svg>
