<svg width="22" height="22" viewBox="0 0 22 22" fill="none" xmlns="http://www.w3.org/2000/svg">
<path d="M5.66667 21C4.92593 21 4.2963 20.7375 3.77778 20.2125C3.25926 19.6875 3 19.05 3 18.3V15.6H5.66667V3H19V18.3C19 19.05 18.7407 19.6875 18.2222 20.2125C17.7037 20.7375 17.0741 21 16.3333 21H5.66667ZM16.3333 19.2C16.5852 19.2 16.7963 19.1137 16.9667 18.9412C17.137 18.7687 17.2222 18.555 17.2222 18.3V4.8H7.44444V15.6H15.4444V18.3C15.4444 18.555 15.5296 18.7687 15.7 18.9412C15.8704 19.1137 16.0815 19.2 16.3333 19.2ZM8.33333 9.3V7.5H16.3333V9.3H8.33333ZM8.33333 12V10.2H16.3333V12H8.33333Z" fill="white"/>
</svg>
