<svg width="22" height="22" viewBox="0 0 22 22" fill="none" xmlns="http://www.w3.org/2000/svg">
<path d="M14.889 9.80666L14.0442 9.90035L14.889 9.80666ZM15.2309 12.8902L16.0758 12.7965V12.7965L15.2309 12.8902ZM5.00426 12.8902L4.15944 12.7965L4.15944 12.7965L5.00426 12.8902ZM5.34623 9.80666L6.19105 9.90035L5.34623 9.80666ZM4.34242 14.4217L3.68892 13.8781H3.68892L4.34242 14.4217ZM15.8928 14.4217L15.2393 14.9652L15.2393 14.9652L15.8928 14.4217ZM11.8534 6.20546H11.0034C11.0034 6.56655 11.2316 6.88823 11.5723 7.00764L11.8534 6.20546ZM8.38177 6.20546L8.66286 7.00764C9.00364 6.88823 9.23177 6.56655 9.23177 6.20546H8.38177ZM13.2099 18.7271C13.3713 18.2863 13.1448 17.7981 12.704 17.6366C12.2632 17.4752 11.775 17.7017 11.6135 18.1425L13.2099 18.7271ZM8.62167 18.1425C8.46024 17.7017 7.97203 17.4752 7.53121 17.6366C7.0904 17.7981 6.86391 18.2863 7.02534 18.7271L8.62167 18.1425ZM14.5354 16.0196H5.69979V17.7196H14.5354V16.0196ZM14.0442 9.90035L14.3861 12.9839L16.0758 12.7965L15.7338 9.71297L14.0442 9.90035ZM5.84908 12.9839L6.19105 9.90035L4.50141 9.71297L4.15944 12.7965L5.84908 12.9839ZM4.99592 14.9652C5.46932 14.396 5.7684 13.7115 5.84908 12.9839L4.15944 12.7965C4.11695 13.1797 3.95829 13.5543 3.68892 13.8781L4.99592 14.9652ZM14.3861 12.9839C14.4668 13.7115 14.7659 14.396 15.2393 14.9652L16.5463 13.8781C16.2769 13.5543 16.1183 13.1797 16.0758 12.7965L14.3861 12.9839ZM5.69979 16.0196C5.30414 16.0196 5.04254 15.8226 4.92557 15.6116C4.81474 15.4118 4.81536 15.1823 4.99592 14.9652L3.68892 13.8781C3.03058 14.6696 3.0108 15.6641 3.43884 16.436C3.86074 17.1969 4.69727 17.7196 5.69979 17.7196V16.0196ZM14.5354 17.7196C15.5379 17.7196 16.3745 17.1969 16.7964 16.436C17.2244 15.6641 17.2046 14.6696 16.5463 13.8781L15.2393 14.9652C15.4198 15.1823 15.4205 15.4118 15.3096 15.6116C15.1927 15.8226 14.9311 16.0196 14.5354 16.0196V17.7196ZM12.7034 6.20546V6.12429H11.0034V6.20546H12.7034ZM15.7338 9.71297C15.5083 7.67931 14.0351 6.06925 12.1345 5.40328L11.5723 7.00764C12.9484 7.48981 13.9009 8.60862 14.0442 9.90035L15.7338 9.71297ZM9.23177 6.20546V6.12429H7.53177V6.20546H9.23177ZM6.19105 9.90035C6.3343 8.60862 7.28683 7.48981 8.66286 7.00764L8.10069 5.40328C6.20014 6.06925 4.72694 7.67931 4.50141 9.71297L6.19105 9.90035ZM10.1176 5.19781C10.5884 5.19781 11.0034 5.59395 11.0034 6.12429H12.7034C12.7034 4.69238 11.5642 3.49781 10.1176 3.49781V5.19781ZM10.1176 3.49781C8.67105 3.49781 7.53177 4.69238 7.53177 6.12429H9.23177C9.23177 5.59395 9.64682 5.19781 10.1176 5.19781V3.49781ZM11.6135 18.1425C11.4037 18.7156 10.8241 19.15 10.1176 19.15V20.85C11.5294 20.85 12.7519 19.9778 13.2099 18.7271L11.6135 18.1425ZM10.1176 19.15C9.4111 19.15 8.83153 18.7156 8.62167 18.1425L7.02534 18.7271C7.48334 19.9778 8.70584 20.85 10.1176 20.85V19.15Z" fill="white"/>
</svg>
