<?xml version="1.0" encoding="UTF-8" standalone="no"?>
<svg
   width="20"
   height="20"
   viewBox="0 0 20 20"
   fill="none"
   version="1.1"
   id="svg3"
   sodipodi:docname="Icon=map.svg"
   inkscape:version="1.3.2 (091e20e, 2023-11-25)"
   xmlns:inkscape="http://www.inkscape.org/namespaces/inkscape"
   xmlns:sodipodi="http://sodipodi.sourceforge.net/DTD/sodipodi-0.dtd"
   xmlns="http://www.w3.org/2000/svg"
   xmlns:svg="http://www.w3.org/2000/svg">
  <g
     clip-path="url(#clip0_1_624)"
     id="g3">
    <path
       id="path3"
       style="color:#000000;fill:#b8c1cc;stroke-linecap:round;stroke-linejoin:round;-inkscape-stroke:none"
       d="m 13.333984,4 a 1,1 0 0 0 -1,1 v 13.333984 a 1,1 0 0 0 1,1 1,1 0 0 0 1,-1 V 5 a 1,1 0 0 0 -1,-1 z M 6.6660156,0.66601562 a 1,1 0 0 0 -1,0.99999998 V 15 a 1,1 0 0 0 1,1 1,1 0 0 0 1,-1 V 1.6660156 a 1,1 0 0 0 -1,-0.99999998 z M 7.1132812,0.77148437 A 1.0001,1.0001 0 0 0 6.1699219,0.79882812 L 0.33789063,4.1308594 A 1.0001,1.0001 0 0 0 -0.16601562,5 v 13.333984 a 1.0001,1.0001 0 0 0 1.49609372,0.867188 l 5.3671875,-3.06836 6.1894534,3.095704 a 1.0001,1.0001 0 0 0 0.943359,-0.02734 l 5.832031,-3.332031 A 1.0001,1.0001 0 0 0 20.166016,15 V 1.6660156 A 1.0001,1.0001 0 0 0 18.669922,0.79882812 L 13.302734,3.8671875 Z M 6.6972656,2.8007813 12.886719,5.8945312 a 1.0001,1.0001 0 0 0 0.943359,-0.025391 L 18.166016,3.390625 v 11.029297 l -4.863282,2.779297 -6.1894528,-3.09375 a 1.0001,1.0001 0 0 0 -0.9433593,0.02539 L 1.8339844,16.609375 V 5.5820312 Z" />
  </g>
  <clipPath
       id="clip0_1_624">
      <rect
         width="20"
         height="20"
         fill="white"
         id="rect3" />
    </clipPath>
</svg>
