<?xml version="1.0" encoding="UTF-8" standalone="no"?>
<svg
   width="20"
   height="20"
   viewBox="0 0 20 20"
   fill="none"
   version="1.1"
   id="svg1"
   sodipodi:docname="Icon=message-circle.svg"
   inkscape:version="1.3.2 (091e20e, 2023-11-25)"
   xmlns:inkscape="http://www.inkscape.org/namespaces/inkscape"
   xmlns:sodipodi="http://sodipodi.sourceforge.net/DTD/sodipodi-0.dtd"
   xmlns="http://www.w3.org/2000/svg"
   xmlns:svg="http://www.w3.org/2000/svg">
  <path
     id="path1"
     style="color:#000000;fill:#b8c1cc;stroke-linecap:round;stroke-linejoin:round;-inkscape-stroke:none"
     d="M 10.416016,1.5 C 9.1613941,1.4973432 7.9228982,1.7904292 6.8027344,2.3554688 5.4602656,3.0264235 4.3303909,4.0575414 3.5410156,5.3339844 2.751635,6.6104289 2.3345663,8.0812164 2.3339844,9.5820312 2.3314692,10.648223 2.6524292,11.672236 3.0625,12.652344 l -1.5117188,4.53125 a 1.0001,1.0001 0 0 0 1.265625,1.265625 l 4.53125,-1.511719 c 0.9806494,0.410254 2.0053955,0.731231 3.0722658,0.728516 1.500049,-10e-4 2.970228,-0.417899 4.246094,-1.207032 1.275277,-0.788583 2.305548,-1.917139 2.976562,-3.257812 v -0.002 C 18.208893,12.077384 18.503314,10.836812 18.5,9.5800781 V 9.1660156 a 1.0001,1.0001 0 0 0 -0.002,-0.054687 C 18.38875,7.1288107 17.552407,5.2555085 16.148438,3.8515625 14.744543,2.4475759 12.871189,1.6113283 10.888672,1.5019531 A 1.0001,1.0001 0 0 0 10.833984,1.5 h -0.414062 z m -0.002,2 a 1.0001,1.0001 0 0 0 0.002,0 h 0.36914 c 1.488447,0.084128 2.895048,0.7113854 3.949219,1.765625 C 15.788672,6.319905 16.4159,7.7264763 16.5,9.2148438 v 0.3691406 a 1.0001,1.0001 0 0 0 0,0.00195 c 0.0025,0.9423595 -0.217664,1.8716295 -0.642578,2.7128905 a 1.0001,1.0001 0 0 0 -0.002,0.0039 c -0.505032,1.010407 -1.281508,1.86103 -2.242188,2.455078 -0.960576,0.594123 -2.067598,0.907688 -3.197265,0.908204 a 1.0001,1.0001 0 0 0 -0.002,0 C 9.4716793,15.668424 8.5424116,15.448273 7.7011719,15.023438 A 1.0001,1.0001 0 0 0 6.9335938,14.96875 L 4.0820312,15.917969 5.03125,13.066406 A 1.0001,1.0001 0 0 0 4.9765625,12.298828 C 4.5516614,11.457578 4.3315338,10.528339 4.3339844,9.5859375 a 1.0001,1.0001 0 0 0 0,-0.00195 C 4.3344224,8.4543814 4.6480509,7.3474498 5.2421875,6.3867188 5.8363094,5.4260063 6.686839,4.6495341 7.6972656,4.1445312 a 1.0001,1.0001 0 0 0 0.00391,-0.00195 C 8.542361,3.7176859 9.4716029,3.4975494 10.414062,3.5 Z" />
</svg>
