<?xml version="1.0" encoding="UTF-8" standalone="no"?>
<svg
   width="20"
   height="20"
   viewBox="0 0 20 20"
   fill="none"
   version="1.1"
   id="svg4"
   sodipodi:docname="Icon=mic.svg"
   inkscape:version="1.3.2 (091e20e, 2023-11-25)"
   xmlns:inkscape="http://www.inkscape.org/namespaces/inkscape"
   xmlns:sodipodi="http://sodipodi.sourceforge.net/DTD/sodipodi-0.dtd"
   xmlns="http://www.w3.org/2000/svg"
   xmlns:svg="http://www.w3.org/2000/svg">
  <g
     clip-path="url(#clip0_1_651)"
     id="g4">
    <path
       id="path4"
       style="color:#000000;fill:#b8c1cc;stroke-linecap:round;stroke-linejoin:round;-inkscape-stroke:none"
       d="m 6.6660156,18.166016 a 1,1 0 0 0 -1,1 1,1 0 0 0 1,1 h 6.6679684 a 1,1 0 0 0 1,-1 1,1 0 0 0 -1,-1 z M 10,14.833984 a 1,1 0 0 0 -1,1 v 3.332032 a 1,1 0 0 0 1,1 1,1 0 0 0 1,-1 v -3.332032 a 1,1 0 0 0 -1,-1 z M 4.1660156,7.3339844 a 1,1 0 0 0 -1,1 V 10 c 0,1.811929 0.7207508,3.550782 2.0019531,4.832031 C 6.4492135,16.113323 8.188097,16.833984 10,16.833984 c 1.811895,0 3.550763,-0.720685 4.832031,-2.001953 C 16.113157,13.550789 16.833984,11.811938 16.833984,10 V 8.3339844 a 1,1 0 0 0 -1,-1 1,1 0 0 0 -1,1 V 10 c 0,1.282259 -0.509343,2.511214 -1.416015,3.417969 -0.90673,0.90673 -2.135667,1.416015 -3.417969,1.416015 -1.2823139,0 -2.5112956,-0.509309 -3.4179688,-1.416015 C 5.6753158,12.51122 5.1660156,11.282268 5.1660156,10 V 8.3339844 a 1,1 0 0 0 -1,-1 z M 10,-0.16601562 c -0.9278758,0 -1.8185043,0.36928552 -2.4746094,1.02539062 C 6.8692875,1.5154781 6.5,2.4061146 6.5,3.3339844 V 10 c 0,0.927906 0.3693806,1.818515 1.0253906,2.474609 C 8.1814904,13.130653 9.0721202,13.5 10,13.5 c 0.927856,0 1.818474,-0.369395 2.474609,-1.025391 C 13.130555,11.818524 13.5,10.927916 13.5,10 V 3.3339844 C 13.5,2.4061046 13.130648,1.5154698 12.474609,0.859375 11.818468,0.20331776 10.927852,-0.16601562 10,-0.16601562 Z m 0,2.00000002 c 0.398147,0 0.778889,0.1578313 1.060547,0.4394531 C 11.342107,2.5550218 11.5,2.9357855 11.5,3.3339844 V 10 c 0,0.398283 -0.1578,0.778833 -0.439453,1.060547 C 10.778884,11.34215 10.398143,11.5 10,11.5 9.6018011,11.5 9.2210324,11.342102 8.9394531,11.060547 8.6577841,10.778842 8.5,10.398293 8.5,10 V 3.3339844 C 8.5,2.9357755 8.6578772,2.5550135 8.9394531,2.2734375 9.2210271,1.9918635 9.6017971,1.8339844 10,1.8339844 Z" />
  </g>
  <clipPath
       id="clip0_1_651">
      <rect
         width="20"
         height="20"
         fill="white"
         id="rect4" />
    </clipPath>
</svg>
