<?xml version="1.0" encoding="UTF-8" standalone="no"?>
<svg
   width="20"
   height="20"
   viewBox="0 0 20 20"
   fill="none"
   version="1.1"
   id="svg1"
   sodipodi:docname="Icon=paperclip.svg"
   inkscape:version="1.3.2 (091e20e, 2023-11-25)"
   xmlns:inkscape="http://www.inkscape.org/namespaces/inkscape"
   xmlns:sodipodi="http://sodipodi.sourceforge.net/DTD/sodipodi-0.dtd"
   xmlns="http://www.w3.org/2000/svg"
   xmlns:svg="http://www.w3.org/2000/svg">
  <path
     id="path1"
     style="color:#000000;fill:#b8c1cc;stroke-linecap:round;stroke-linejoin:round;-inkscape-stroke:none"
     d="m 13.150391,0.15625 c -1.149348,0 -2.253663,0.45682707 -3.066407,1.2695312 L 2.4257812,9.0839844 C 1.3003218,10.209468 0.66796875,11.738444 0.66796875,13.330078 c 0,1.591635 0.63234425,3.118672 1.75781245,4.244141 1.1254582,1.125458 2.6524801,1.757812 4.2441407,1.757812 1.5916605,0 3.1206732,-0.632332 4.2460941,-1.757812 l 7.658203,-7.6582034 a 1,1 0 0 0 0,-1.4140625 1,1 0 0 0 -1.414063,0 L 9.5019531,16.160156 c -0.7508759,0.750916 -1.7700571,1.171875 -2.8320312,1.171875 -1.0619742,0 -2.0791401,-0.420937 -2.8300781,-1.171875 -0.7509281,-0.750928 -1.1718751,-1.768118 -1.171875,-2.830078 0,-1.06196 0.4209381,-2.081079 1.171875,-2.832031 L 11.498047,2.8398438 C 11.936301,2.4016104 12.530741,2.15625 13.150391,2.15625 c 0.619778,0 1.212273,0.2454265 1.65039,0.6835938 0.438233,0.4382115 0.683594,1.0326377 0.683594,1.6523437 0,0.619706 -0.245364,1.2121829 -0.683594,1.6503906 L 7.1347656,13.800781 c -0.1254585,0.125487 -0.2952324,0.195313 -0.4726562,0.195313 -0.1774399,0 -0.3452445,-0.06983 -0.4707032,-0.195313 a 1.0001,1.0001 0 0 0 -0.00195,0 C 6.063982,13.675329 5.9941406,13.507565 5.9941406,13.330078 c 0,-0.177487 0.06992,-0.347279 0.1953125,-0.472656 L 13.265625,5.7910156 a 1,1 0 0 0 0,-1.4140625 A 1,1 0 0 0 11.851562,4.375 l -7.0742182,7.068359 a 1.0001,1.0001 0 0 0 -0.00195,0 c -0.500086,0.500023 -0.78125,1.179608 -0.78125,1.886719 0,0.707111 0.2812394,1.384819 0.78125,1.884766 0.5000001,0.500111 1.1796004,0.78125 1.8867188,0.78125 0.7071143,0 1.3867186,-0.281139 1.8867187,-0.78125 L 16.214844,7.5566406 c 0.812768,-0.8127297 1.269531,-1.9150626 1.269531,-3.0644531 0,-1.1493905 -0.456767,-2.2536803 -1.269531,-3.0664063 C 15.402165,0.61301098 14.299808,0.15625 13.150391,0.15625 Z" />
</svg>
