<svg width="25" height="25" viewBox="0 0 25 25" fill="none" xmlns="http://www.w3.org/2000/svg">
<mask id="mask0_894_308" style="mask-type:alpha" maskUnits="userSpaceOnUse" x="0" y="0" width="25" height="25">
<rect x="0.199951" y="0.5" width="24" height="24" fill="#D9D9D9"/>
</mask>
<g mask="url(#mask0_894_308)">
<path d="M12.2 12.5C11.1 12.5 10.1583 12.1083 9.37495 11.325C8.59162 10.5417 8.19995 9.6 8.19995 8.5C8.19995 7.4 8.59162 6.45833 9.37495 5.675C10.1583 4.89167 11.1 4.5 12.2 4.5C13.3 4.5 14.2416 4.89167 15.025 5.675C15.8083 6.45833 16.2 7.4 16.2 8.5C16.2 9.6 15.8083 10.5417 15.025 11.325C14.2416 12.1083 13.3 12.5 12.2 12.5ZM4.19995 20.5V17.7C4.19995 17.1333 4.34578 16.6125 4.63745 16.1375C4.92912 15.6625 5.31662 15.3 5.79995 15.05C6.83328 14.5333 7.88328 14.1458 8.94995 13.8875C10.0166 13.6292 11.1 13.5 12.2 13.5C13.3 13.5 14.3833 13.6292 15.45 13.8875C16.5166 14.1458 17.5666 14.5333 18.6 15.05C19.0833 15.3 19.4708 15.6625 19.7625 16.1375C20.0541 16.6125 20.2 17.1333 20.2 17.7V20.5H4.19995Z" fill="white"/>
</g>
</svg>
