<?xml version="1.0" encoding="UTF-8" standalone="no"?>
<svg
   width="20"
   height="20"
   viewBox="0 0 20 20"
   fill="none"
   version="1.1"
   id="svg2"
   sodipodi:docname="Icon=plus.svg"
   inkscape:version="1.3.2 (091e20e, 2023-11-25)"
   xmlns:inkscape="http://www.inkscape.org/namespaces/inkscape"
   xmlns:sodipodi="http://sodipodi.sourceforge.net/DTD/sodipodi-0.dtd"
   xmlns="http://www.w3.org/2000/svg"
   xmlns:svg="http://www.w3.org/2000/svg">
  <path
     id="path1"
     style="color:#000000;fill:#b8c1cc;stroke-linecap:round;stroke-linejoin:round;-inkscape-stroke:none"
     d="m 10,3.1660156 a 1,1 0 0 0 -1,1 V 9 H 4.1660156 a 1,1 0 0 0 -1,1 1,1 0 0 0 1,1 H 9 v 4.833984 a 1,1 0 0 0 1,1 1,1 0 0 0 1,-1 V 11 h 4.833984 a 1,1 0 0 0 1,-1 1,1 0 0 0 -1,-1 H 11 V 4.1660156 a 1,1 0 0 0 -1,-1 z" />
</svg>
