<svg width="28" height="28" viewBox="0 0 28 28" fill="none" xmlns="http://www.w3.org/2000/svg">
<mask id="mask0_894_82" style="mask-type:alpha" maskUnits="userSpaceOnUse" x="0" y="0" width="28" height="28">
<rect width="28" height="28" fill="#D9D9D9"/>
</mask>
<g mask="url(#mask0_894_82)">
<path d="M2.33337 8.16663V2.3333H8.16671V4.66663H4.66671V8.16663H2.33337ZM2.33337 25.6666V19.8333H4.66671V23.3333H8.16671V25.6666H2.33337ZM19.8334 25.6666V23.3333H23.3334V19.8333H25.6667V25.6666H19.8334ZM23.3334 8.16663V4.66663H19.8334V2.3333H25.6667V8.16663H23.3334ZM20.4167 20.4166H22.1667V22.1666H20.4167V20.4166ZM20.4167 16.9166H22.1667V18.6666H20.4167V16.9166ZM18.6667 18.6666H20.4167V20.4166H18.6667V18.6666ZM16.9167 20.4166H18.6667V22.1666H16.9167V20.4166ZM15.1667 18.6666H16.9167V20.4166H15.1667V18.6666ZM18.6667 15.1666H20.4167V16.9166H18.6667V15.1666ZM16.9167 16.9166H18.6667V18.6666H16.9167V16.9166ZM15.1667 15.1666H16.9167V16.9166H15.1667V15.1666ZM22.1667 5.8333V12.8333H15.1667V5.8333H22.1667ZM12.8334 15.1666V22.1666H5.83337V15.1666H12.8334ZM12.8334 5.8333V12.8333H5.83337V5.8333H12.8334ZM11.0834 20.4166V16.9166H7.58337V20.4166H11.0834ZM11.0834 11.0833V7.5833H7.58337V11.0833H11.0834ZM20.4167 11.0833V7.5833H16.9167V11.0833H20.4167Z" fill="white"/>
</g>
</svg>
