<?xml version="1.0" encoding="UTF-8" standalone="no"?>
<svg
   width="20"
   height="20"
   viewBox="0 0 20 20"
   fill="none"
   version="1.1"
   id="svg2"
   sodipodi:docname="Icon=send.svg"
   inkscape:version="1.3.2 (091e20e, 2023-11-25)"
   xmlns:inkscape="http://www.inkscape.org/namespaces/inkscape"
   xmlns:sodipodi="http://sodipodi.sourceforge.net/DTD/sodipodi-0.dtd"
   xmlns="http://www.w3.org/2000/svg"
   xmlns:svg="http://www.w3.org/2000/svg">
  <g
     clip-path="url(#clip0_1_648)"
     id="g2">
    <path
       id="path2"
       style="color:#000000;fill:#b8c1cc;stroke-linecap:round;stroke-linejoin:round;-inkscape-stroke:none"
       d="M 18.003906,0.72265625 1.3359375,6.5566406 a 1.0001,1.0001 0 0 0 -0.076172,1.8574219 l 7.1484375,3.1777345 3.177735,7.148437 a 1.0001,1.0001 0 0 0 1.857421,-0.07617 L 19.277344,1.9960937 A 1.0001,1.0001 0 0 0 18.003906,0.72265625 Z M 16.703125,3.296875 12.388672,15.623047 10.080078,10.427734 A 1.0001,1.0001 0 0 0 9.5722656,9.9199219 L 4.3769531,7.6113281 Z M 17.626953,0.95898438 8.4589844,10.126953 a 1,1 0 0 0 0,1.414063 1,1 0 0 0 1.4140625,0 L 19.041016,2.3730469 a 1,1 0 0 0 0,-1.41406252 1,1 0 0 0 -1.414063,0 z" />
  </g>
  <clipPath
       id="clip0_1_648">
      <rect
         width="20"
         height="20"
         fill="white"
         id="rect2" />
    </clipPath>
</svg>
