<?xml version="1.0" encoding="UTF-8" standalone="no"?>
<svg
   width="20"
   height="20"
   viewBox="0 0 20 20"
   fill="none"
   version="1.1"
   id="svg3"
   sodipodi:docname="Icon=shopping-cart.svg"
   inkscape:version="1.3.2 (091e20e, 2023-11-25)"
   xmlns:inkscape="http://www.inkscape.org/namespaces/inkscape"
   xmlns:sodipodi="http://sodipodi.sourceforge.net/DTD/sodipodi-0.dtd"
   xmlns="http://www.w3.org/2000/svg"
   xmlns:svg="http://www.w3.org/2000/svg">
  <g
     clip-path="url(#clip0_1_636)"
     id="g3">
    <path
       id="path3"
       style="color:#000000;fill:#b8c1cc;stroke-linecap:round;stroke-linejoin:round;-inkscape-stroke:none"
       d="m 0.83398438,-0.16601562 a 1,1 0 0 0 -1,1 1,1 0 0 0 1,1.00000002 H 3.3476563 L 5.4199219,12.1875 c 0.1218865,0.613592 0.455969,1.164265 0.9433593,1.556641 0.4873135,0.392153 1.0971223,0.60184 1.7226563,0.589843 h 8.0605465 c 0.62554,0.012 1.237346,-0.19773 1.72461,-0.589843 0.487407,-0.392389 0.821355,-0.943264 0.943359,-1.556641 a 1.0001,1.0001 0 0 0 0.002,-0.0078 L 20.148437,5.1875 A 1.0001,1.0001 0 0 0 19.166016,4 H 5.8203125 L 5.1464844,0.63671875 A 1.0001,1.0001 0 0 0 4.1660156,-0.16601562 Z M 6.2207031,6 H 17.957031 l -1.105469,5.804688 v -0.0078 c -0.0306,0.153822 -0.112382,0.290461 -0.234375,0.388672 -0.122135,0.09829 -0.27498,0.151442 -0.43164,0.148437 a 1.0001,1.0001 0 0 0 -0.01953,0 H 8.0664063 a 1.0001,1.0001 0 0 0 -0.019531,0 C 7.8902501,12.336997 7.7392738,12.283807 7.6171878,12.18556 7.4951787,12.08734 7.411373,11.950496 7.3808597,11.796888 a 1.0001,1.0001 0 0 0 0,-0.002 z m 10.4453129,9.666016 c -1.000672,0 -1.832032,0.83344 -1.832032,1.833984 0,1.000544 0.83136,1.833984 1.832032,1.833984 1.000688,0 1.833984,-0.833295 1.833984,-1.833984 0,-1.000689 -0.833296,-1.833984 -1.833984,-1.833984 z m 0,1.667968 c 0.08007,0 0.167968,0.08587 0.167968,0.166016 0,0.08015 -0.0879,0.166016 -0.167968,0.166016 C 16.585726,17.666016 16.5,17.58029 16.5,17.5 c 0,-0.08029 0.08573,-0.166016 0.166016,-0.166016 z M 7.5,15.666016 c -1.0006817,0 -1.8339844,0.83331 -1.8339844,1.833984 0,1.000674 0.8333027,1.833984 1.8339844,1.833984 1.0006817,0 1.8339844,-0.83331 1.8339844,-1.833984 0,-1.000674 -0.8333027,-1.833984 -1.8339844,-1.833984 z m 0,1.667968 c 0.080203,0 0.1660156,0.08574 0.1660156,0.166016 0,0.08028 -0.085813,0.166016 -0.1660156,0.166016 -0.080203,0 -0.1660156,-0.08574 -0.1660156,-0.166016 0,-0.08028 0.085813,-0.166016 0.1660156,-0.166016 z" />
  </g>
  <clipPath
       id="clip0_1_636">
      <rect
         width="20"
         height="20"
         fill="white"
         id="rect3" />
    </clipPath>
</svg>
