<svg width="24" height="25" viewBox="0 0 24 25" fill="none" xmlns="http://www.w3.org/2000/svg">
<mask id="mask0_894_281" style="mask-type:alpha" maskUnits="userSpaceOnUse" x="0" y="0" width="24" height="25">
<rect y="0.5" width="24" height="24" fill="#D9D9D9"/>
</mask>
<g mask="url(#mask0_894_281)">
<path d="M5 11.5C4.45 11.5 3.97917 11.3042 3.5875 10.9125C3.19583 10.5208 3 10.05 3 9.5V5.5C3 4.95 3.19583 4.47917 3.5875 4.0875C3.97917 3.69583 4.45 3.5 5 3.5H19C19.55 3.5 20.0208 3.69583 20.4125 4.0875C20.8042 4.47917 21 4.95 21 5.5V9.5C21 10.05 20.8042 10.5208 20.4125 10.9125C20.0208 11.3042 19.55 11.5 19 11.5H5ZM5 9.5H19V5.5H5V9.5ZM5 21.5C4.45 21.5 3.97917 21.3042 3.5875 20.9125C3.19583 20.5208 3 20.05 3 19.5V15.5C3 14.95 3.19583 14.4792 3.5875 14.0875C3.97917 13.6958 4.45 13.5 5 13.5H19C19.55 13.5 20.0208 13.6958 20.4125 14.0875C20.8042 14.4792 21 14.95 21 15.5V19.5C21 20.05 20.8042 20.5208 20.4125 20.9125C20.0208 21.3042 19.55 21.5 19 21.5H5ZM5 19.5H19V15.5H5V19.5Z" fill="white"/>
</g>
</svg>
