<svg width="24" height="16" viewBox="0 0 24 16" fill="none" xmlns="http://www.w3.org/2000/svg">
<mask id="mask0_1_3720" style="mask-type:alpha" maskUnits="userSpaceOnUse" x="0" y="-4" width="24" height="24">
<rect y="-4" width="24" height="24" fill="#D9D9D9"/>
</mask>
<g mask="url(#mask0_1_3720)">
<path d="M12 12C13.25 12 14.3125 11.5625 15.1875 10.6875C16.0625 9.8125 16.5 8.75 16.5 7.5C16.5 6.25 16.0625 5.1875 15.1875 4.3125C14.3125 3.4375 13.25 3 12 3C10.75 3 9.6875 3.4375 8.8125 4.3125C7.9375 5.1875 7.5 6.25 7.5 7.5C7.5 8.75 7.9375 9.8125 8.8125 10.6875C9.6875 11.5625 10.75 12 12 12ZM12 10.2C11.25 10.2 10.6125 9.9375 10.0875 9.4125C9.5625 8.8875 9.3 8.25 9.3 7.5C9.3 6.75 9.5625 6.1125 10.0875 5.5875C10.6125 5.0625 11.25 4.8 12 4.8C12.75 4.8 13.3875 5.0625 13.9125 5.5875C14.4375 6.1125 14.7 6.75 14.7 7.5C14.7 8.25 14.4375 8.8875 13.9125 9.4125C13.3875 9.9375 12.75 10.2 12 10.2ZM12 15C9.56667 15 7.35 14.3208 5.35 12.9625C3.35 11.6042 1.9 9.78333 1 7.5C1.9 5.21667 3.35 3.39583 5.35 2.0375C7.35 0.679167 9.56667 0 12 0C14.4333 0 16.65 0.679167 18.65 2.0375C20.65 3.39583 22.1 5.21667 23 7.5C22.1 9.78333 20.65 11.6042 18.65 12.9625C16.65 14.3208 14.4333 15 12 15ZM12 13C13.8833 13 15.6125 12.5042 17.1875 11.5125C18.7625 10.5208 19.9667 9.18333 20.8 7.5C19.9667 5.81667 18.7625 4.47917 17.1875 3.4875C15.6125 2.49583 13.8833 2 12 2C10.1167 2 8.3875 2.49583 6.8125 3.4875C5.2375 4.47917 4.03333 5.81667 3.2 7.5C4.03333 9.18333 5.2375 10.5208 6.8125 11.5125C8.3875 12.5042 10.1167 13 12 13Z" fill="white"/>
</g>
</svg>
