<svg width="24" height="16" viewBox="0 0 24 16" fill="none" xmlns="http://www.w3.org/2000/svg">
<mask id="mask0_1_3726" style="mask-type:alpha" maskUnits="userSpaceOnUse" x="0" y="-4" width="24" height="24">
<rect y="-4" width="24" height="24" fill="#D9D9D9"/>
</mask>
<g mask="url(#mask0_1_3726)">
<path d="M16.1 9.30005L14.65 7.85005C14.8 7.06672 14.575 6.33338 13.975 5.65005C13.375 4.96672 12.6 4.70005 11.65 4.85005L10.2 3.40005C10.4833 3.26672 10.7708 3.16672 11.0625 3.10005C11.3542 3.03338 11.6667 3.00005 12 3.00005C13.25 3.00005 14.3125 3.43755 15.1875 4.31255C16.0625 5.18755 16.5 6.25005 16.5 7.50005C16.5 7.83338 16.4667 8.14588 16.4 8.43755C16.3333 8.72922 16.2333 9.01672 16.1 9.30005ZM19.3 12.4501L17.85 11.05C18.4833 10.5667 19.0458 10.0375 19.5375 9.46255C20.0292 8.88755 20.45 8.23338 20.8 7.50005C19.9667 5.81672 18.7708 4.47922 17.2125 3.48755C15.6542 2.49588 13.9167 2.00005 12 2.00005C11.5167 2.00005 11.0417 2.03338 10.575 2.10005C10.1083 2.16672 9.65 2.26672 9.2 2.40005L7.65 0.850049C8.33333 0.566716 9.03333 0.354216 9.75 0.212549C10.4667 0.0708823 11.2167 4.88758e-05 12 4.88758e-05C14.5167 4.88758e-05 16.7583 0.695882 18.725 2.08755C20.6917 3.47922 22.1167 5.28338 23 7.50005C22.6167 8.48338 22.1125 9.39588 21.4875 10.2375C20.8625 11.0792 20.1333 11.8167 19.3 12.4501ZM19.8 18.6L15.6 14.4501C15.0167 14.6334 14.4292 14.7709 13.8375 14.8626C13.2458 14.9542 12.6333 15 12 15C9.48333 15 7.24167 14.3042 5.275 12.9125C3.30833 11.5209 1.88333 9.71672 1 7.50005C1.35 6.61672 1.79167 5.79588 2.325 5.03755C2.85833 4.27922 3.46667 3.60005 4.15 3.00005L1.4 0.200049L2.8 -1.19995L21.2 17.2001L19.8 18.6ZM5.55 4.40005C5.06667 4.83338 4.625 5.30838 4.225 5.82505C3.825 6.34172 3.48333 6.90005 3.2 7.50005C4.03333 9.18338 5.22917 10.5209 6.7875 11.5126C8.34583 12.5042 10.0833 13.0001 12 13.0001C12.3333 13.0001 12.6583 12.9792 12.975 12.9376C13.2917 12.8959 13.6167 12.85 13.95 12.8L13.05 11.85C12.8667 11.9001 12.6917 11.9376 12.525 11.9626C12.3583 11.9875 12.1833 12 12 12C10.75 12 9.6875 11.5625 8.8125 10.6875C7.9375 9.81255 7.5 8.75005 7.5 7.50005C7.5 7.31672 7.5125 7.14172 7.5375 6.97505C7.5625 6.80838 7.6 6.63338 7.65 6.45005L5.55 4.40005Z" fill="white"/>
</g>
</svg>
